# xmcd
#
# Track frame offsets:
#	150
#	13079
#	29328
#	42660
#	59479
#
# Disc length: 1071 seconds
# Revision: 0
# Processed by: cddbd v1.5.2PL0 Copyright (c) Steve Scherf et al.
# Submitted via: dBpowerAMP V12.0
#
DISCID=41042d05
DTITLE=Kris Allen - Thank You Camellia, Disc 2
DYEAR=2012
DGENRE=Rock/Pop
TTITLE0=Shut That Door [Acoustic]
TTITLE1=The Vision of Love [Acoustic]
TTITLE2=Better With You [Acoustic]
TTITLE3=Out Alive [Acoustic]
TTITLE4=Leave You Alone [Acoustic]
EXTD=
EXTT0=
EXTT1=
EXTT2=
EXTT3=
EXTT4=
PLAYORDER=
